<?xml version="1.0" encoding="UTF-8"?>
<svg xmlns="http://www.w3.org/2000/svg" xmlns:xlink="http://www.w3.org/1999/xlink" width="700px" height="700px" viewBox="0 0 700 700" version="1.1">
<g id="surface1">
<path style=" stroke:none;fill-rule:nonzero;fill:rgb(17.647059%,20.392157%,23.529412%);fill-opacity:1;" d="M 308.699219 103.164062 C 309.929688 103.300781 311.160156 103.4375 312.429688 103.578125 C 315.125 103.882812 317.824219 104.191406 320.519531 104.503906 C 324.855469 105.007812 329.195312 105.476562 333.535156 105.933594 C 352.667969 107.980469 371.757812 110.304688 390.835938 112.820312 C 402.121094 114.3125 402.121094 114.3125 413.425781 115.632812 C 414.464844 115.746094 415.5 115.863281 416.570312 115.980469 C 419.113281 116.257812 421.660156 116.515625 424.207031 116.773438 C 428.941406 117.707031 432.59375 119.464844 436.800781 121.800781 C 436.800781 122.722656 436.800781 123.648438 436.800781 124.601562 C 437.722656 124.601562 438.648438 124.601562 439.601562 124.601562 C 441.476562 126.507812 441.476562 126.507812 443.710938 129.238281 C 448.75 135.207031 454.1875 140.644531 459.820312 146.042969 C 461.53125 147.710938 463.171875 149.453125 464.800781 151.199219 C 464.800781 152.125 464.800781 153.046875 464.800781 154 C 465.722656 154 466.648438 154 467.601562 154 C 467.601562 154.925781 467.601562 155.847656 467.601562 156.800781 C 468.394531 157.121094 469.1875 157.441406 470.007812 157.773438 C 474.039062 160.078125 476.460938 162.917969 479.5 166.425781 C 482.585938 169.964844 485.609375 173.417969 488.992188 176.671875 C 491.398438 179.199219 491.398438 179.199219 491.398438 182 C 492.324219 182 493.246094 182 494.199219 182 C 494.199219 182.925781 494.199219 183.847656 494.199219 184.800781 C 495.125 184.800781 496.046875 184.800781 497 184.800781 C 497 185.722656 497 186.648438 497 187.601562 C 497.925781 187.601562 498.847656 187.601562 499.800781 187.601562 C 501.871094 189.707031 501.871094 189.707031 504.261719 192.585938 C 508.398438 197.46875 512.722656 202.003906 517.328125 206.441406 C 519.398438 208.601562 519.398438 208.601562 522.199219 212.800781 C 521.675781 216.5625 521.675781 216.5625 520.800781 219.800781 C 515.851562 221.003906 512.011719 221.226562 506.992188 220.417969 C 505.75 220.222656 504.511719 220.03125 503.230469 219.832031 C 501.953125 219.617188 500.679688 219.40625 499.363281 219.1875 C 498.058594 218.980469 496.753906 218.773438 495.410156 218.5625 C 492.207031 218.050781 489.003906 217.53125 485.800781 217 C 485.894531 222.707031 486.019531 228.410156 486.167969 234.117188 C 486.214844 236.054688 486.253906 237.996094 486.285156 239.9375 C 486.332031 242.726562 486.40625 245.519531 486.484375 248.308594 C 486.519531 249.988281 486.558594 251.667969 486.59375 253.394531 C 487.257812 257.996094 487.996094 258.898438 491.398438 261.800781 C 491.761719 265.972656 491.613281 269.382812 490.550781 273.4375 C 489.871094 278.085938 490.765625 281.257812 492.011719 285.773438 C 494.152344 294.296875 494.671875 302.050781 494.199219 310.800781 C 488.816406 313.769531 484.980469 314.035156 478.800781 313.601562 C 476.445312 312.722656 474.105469 311.796875 471.800781 310.800781 C 471.523438 298.675781 471.511719 287.230469 474.125 275.308594 C 474.816406 271.480469 474.816406 271.480469 473.71875 267.28125 C 473.460938 265.261719 473.460938 265.261719 473.199219 263.199219 C 473.875 262.386719 474.546875 261.574219 475.242188 260.734375 C 478.210938 256.421875 477.878906 253.371094 477.808594 248.171875 C 477.789062 245.453125 477.789062 245.453125 477.769531 242.675781 C 477.734375 240.765625 477.699219 238.859375 477.664062 236.949219 C 477.640625 235.019531 477.621094 233.089844 477.605469 231.160156 C 477.554688 226.4375 477.488281 221.71875 477.398438 217 C 473.242188 216.074219 469.085938 215.152344 464.800781 214.199219 C 464.660156 215.160156 464.519531 216.121094 464.375 217.109375 C 463.207031 222.007812 461.195312 226.109375 459.023438 230.648438 C 455.363281 238.761719 453.90625 244.753906 456.398438 253.398438 C 456.863281 255.074219 457.324219 256.75 457.800781 258.476562 C 458.261719 260.035156 458.722656 261.59375 459.199219 263.199219 C 462.5 282.070312 461.195312 301.324219 457.59375 320.03125 C 457.414062 321.015625 457.234375 321.996094 457.050781 323.007812 C 456.398438 326.199219 456.398438 326.199219 455.394531 329.722656 C 451.882812 344.03125 456.421875 356.484375 460.425781 370.210938 C 470.152344 403.980469 470.152344 403.980469 467.601562 415.800781 C 463.21875 422.191406 463.21875 422.191406 459.199219 424.199219 C 437.867188 425.542969 437.867188 425.542969 428.398438 420 C 428.09375 421.152344 427.785156 422.304688 427.46875 423.488281 C 420.941406 446.476562 409.234375 461.316406 388.523438 473.40625 C 356.734375 490.148438 320.042969 494.066406 285.441406 483.824219 C 262.503906 476.65625 240.550781 463.261719 228.554688 441.886719 C 221.082031 426.191406 221.210938 411.285156 225.335938 394.691406 C 226.800781 390.601562 226.800781 390.601562 229.730469 386.199219 C 233.742188 379.457031 233.007812 372.40625 232.75 364.789062 C 232.710938 362.648438 232.710938 362.648438 232.671875 360.46875 C 232.609375 356.980469 232.515625 353.488281 232.398438 350 C 231.4375 349.824219 230.476562 349.652344 229.484375 349.46875 C 228.222656 349.230469 226.960938 348.992188 225.664062 348.746094 C 223.785156 348.398438 223.785156 348.398438 221.871094 348.042969 C 217.113281 346.886719 214.601562 345.304688 211.398438 341.601562 C 209.25 337.132812 208.003906 333.984375 209.34375 329.070312 C 212.746094 321.609375 217.996094 314.960938 224 309.398438 C 224.925781 309.398438 225.847656 309.398438 226.800781 309.398438 C 227.722656 307.089844 228.648438 304.78125 229.601562 302.398438 C 230.523438 302.398438 231.449219 302.398438 232.398438 302.398438 C 234.554688 298.445312 235.765625 294.914062 236.609375 290.5 C 242.894531 259.480469 253.324219 229.054688 275.800781 205.800781 C 276.722656 205.800781 277.648438 205.800781 278.601562 205.800781 C 278.601562 204.875 278.601562 203.953125 278.601562 203 C 289.148438 193.789062 305.230469 184.042969 319.199219 182 C 319.4375 181.121094 319.675781 180.238281 319.921875 179.332031 C 321.652344 173.222656 323.453125 167.566406 326.460938 161.960938 C 328.726562 157.71875 329.613281 154.699219 329 149.800781 C 328.074219 149.800781 327.152344 149.800781 326.199219 149.800781 C 326.199219 148.875 326.199219 147.953125 326.199219 147 C 325.277344 147 324.351562 147 323.398438 147 C 323.398438 146.074219 323.398438 145.152344 323.398438 144.199219 C 322.476562 144.199219 321.550781 144.199219 320.601562 144.199219 C 318.332031 141.898438 318.332031 141.898438 315.789062 138.863281 C 312.238281 134.644531 312.238281 134.644531 308.386719 130.707031 C 306.601562 128.800781 306.601562 128.800781 306.601562 126 C 305.675781 126 304.753906 126 303.800781 126 C 301.433594 123.597656 301.433594 123.597656 298.8125 120.488281 C 297.511719 118.953125 297.511719 118.953125 296.183594 117.386719 C 295.101562 116.105469 295.101562 116.105469 294 114.800781 C 293.308594 114.105469 293.308594 114.105469 292.601562 113.398438 C 292.25 109.289062 292.25 109.289062 292.601562 105 C 298.191406 101.273438 302.339844 102.386719 308.699219 103.164062 Z M 308.699219 103.164062 "/>
<path style=" stroke:none;fill-rule:nonzero;fill:rgb(98.823529%,98.823529%,98.823529%);fill-opacity:1;" d="M 259.613281 269.9375 C 268.074219 273.859375 273.839844 279.667969 277.199219 288.398438 C 277.882812 290.730469 278.550781 293.0625 279.210938 295.398438 C 280.941406 301.507812 283.296875 305.695312 287 310.800781 C 287 311.722656 287 312.648438 287 313.601562 C 296.085938 316.628906 305.574219 316.636719 314.398438 312.863281 C 317.496094 311.136719 320.558594 309.347656 323.574219 307.480469 C 334.375 301.363281 349.871094 302.324219 361.636719 305.199219 C 370.539062 308.339844 377.785156 314.296875 382.730469 322.339844 C 384.191406 325.453125 385.347656 328.527344 386.398438 331.800781 C 386.976562 333.53125 387.554688 335.265625 388.148438 337.050781 C 393.9375 363.84375 386.835938 398.214844 372.664062 421.398438 C 363.898438 433.398438 351.796875 442.695312 337.398438 446.601562 C 313.644531 449.171875 292.699219 445.1875 273 431.199219 C 272.144531 430.601562 271.292969 430.003906 270.414062 429.390625 C 251.734375 414.882812 241.546875 392.378906 238 369.601562 C 237.527344 362.816406 237.535156 356.09375 237.648438 349.300781 C 237.65625 347.617188 237.664062 345.933594 237.671875 344.199219 C 238.144531 289.195312 238.144531 289.195312 249.785156 274.734375 C 252.890625 271.820312 255.335938 270.265625 259.613281 269.9375 Z M 259.613281 269.9375 "/>
<path style=" stroke:none;fill-rule:nonzero;fill:rgb(19.607843%,20%,20.784314%);fill-opacity:1;" d="M 308.699219 103.164062 C 309.929688 103.300781 311.160156 103.4375 312.429688 103.578125 C 315.125 103.882812 317.824219 104.191406 320.519531 104.503906 C 324.855469 105.007812 329.195312 105.476562 333.535156 105.933594 C 352.667969 107.980469 371.757812 110.304688 390.835938 112.820312 C 402.121094 114.3125 402.121094 114.3125 413.425781 115.632812 C 414.464844 115.746094 415.5 115.863281 416.570312 115.980469 C 419.113281 116.257812 421.660156 116.515625 424.207031 116.773438 C 428.941406 117.707031 432.59375 119.464844 436.800781 121.800781 C 436.800781 122.722656 436.800781 123.648438 436.800781 124.601562 C 437.722656 124.601562 438.648438 124.601562 439.601562 124.601562 C 441.476562 126.507812 441.476562 126.507812 443.710938 129.238281 C 448.75 135.207031 454.1875 140.644531 459.820312 146.042969 C 461.53125 147.710938 463.171875 149.453125 464.800781 151.199219 C 464.800781 152.125 464.800781 153.046875 464.800781 154 C 465.722656 154 466.648438 154 467.601562 154 C 467.601562 154.925781 467.601562 155.847656 467.601562 156.800781 C 468.394531 157.121094 469.1875 157.441406 470.007812 157.773438 C 474.039062 160.078125 476.460938 162.917969 479.5 166.425781 C 482.585938 169.964844 485.609375 173.417969 488.992188 176.671875 C 491.398438 179.199219 491.398438 179.199219 491.398438 182 C 492.324219 182 493.246094 182 494.199219 182 C 494.199219 182.925781 494.199219 183.847656 494.199219 184.800781 C 495.125 184.800781 496.046875 184.800781 497 184.800781 C 497 185.722656 497 186.648438 497 187.601562 C 497.925781 187.601562 498.847656 187.601562 499.800781 187.601562 C 501.871094 189.707031 501.871094 189.707031 504.261719 192.585938 C 508.398438 197.46875 512.722656 202.003906 517.328125 206.441406 C 519.398438 208.601562 519.398438 208.601562 522.199219 212.800781 C 521.675781 216.5625 521.675781 216.5625 520.800781 219.800781 C 515.851562 221.003906 512.011719 221.226562 506.992188 220.417969 C 505.75 220.222656 504.511719 220.03125 503.230469 219.832031 C 501.953125 219.617188 500.679688 219.40625 499.363281 219.1875 C 498.058594 218.980469 496.753906 218.773438 495.410156 218.5625 C 492.207031 218.050781 489.003906 217.53125 485.800781 217 C 485.894531 222.707031 486.019531 228.410156 486.167969 234.117188 C 486.214844 236.054688 486.253906 237.996094 486.285156 239.9375 C 486.332031 242.726562 486.40625 245.519531 486.484375 248.308594 C 486.519531 249.988281 486.558594 251.667969 486.59375 253.394531 C 487.257812 257.996094 487.996094 258.898438 491.398438 261.800781 C 491.761719 265.972656 491.613281 269.382812 490.550781 273.4375 C 489.871094 278.085938 490.765625 281.257812 492.011719 285.773438 C 494.152344 294.296875 494.671875 302.050781 494.199219 310.800781 C 488.816406 313.769531 484.980469 314.035156 478.800781 313.601562 C 476.445312 312.722656 474.105469 311.796875 471.800781 310.800781 C 471.523438 298.675781 471.511719 287.230469 474.125 275.308594 C 474.816406 271.480469 474.816406 271.480469 473.71875 267.28125 C 473.460938 265.261719 473.460938 265.261719 473.199219 263.199219 C 473.875 262.386719 474.546875 261.574219 475.242188 260.734375 C 478.210938 256.421875 477.878906 253.371094 477.808594 248.171875 C 477.789062 245.453125 477.789062 245.453125 477.769531 242.675781 C 477.734375 240.765625 477.699219 238.859375 477.664062 236.949219 C 477.640625 235.019531 477.621094 233.089844 477.605469 231.160156 C 477.554688 226.4375 477.488281 221.71875 477.398438 217 C 471.539062 216.179688 465.675781 215.363281 459.8125 214.550781 C 458.003906 214.296875 456.199219 214.046875 454.335938 213.789062 C 444.574219 212.433594 434.8125 211.136719 425.03125 209.929688 C 423.101562 209.6875 421.171875 209.449219 419.242188 209.207031 C 415.582031 208.753906 411.917969 208.3125 408.253906 207.875 C 375.421875 203.804688 375.421875 203.804688 364.277344 190.097656 C 362.597656 187.933594 360.933594 185.75 359.292969 183.554688 C 356.871094 180.308594 356.871094 180.308594 353.0625 176.664062 C 350 173.601562 350 173.601562 348.511719 170.539062 C 347.386719 167.75 347.386719 167.75 344.398438 166.601562 C 341.601562 165.199219 341.601562 165.199219 340.199219 162.3125 C 339.039062 159.300781 339.039062 159.300781 335.824219 158.550781 C 334.957031 158.433594 334.09375 158.320312 333.199219 158.199219 C 332.738281 159.125 332.277344 160.046875 331.800781 161 C 329 152.949219 329 152.949219 329 149.800781 C 328.074219 149.800781 327.152344 149.800781 326.199219 149.800781 C 326.199219 148.875 326.199219 147.953125 326.199219 147 C 325.277344 147 324.351562 147 323.398438 147 C 323.398438 146.074219 323.398438 145.152344 323.398438 144.199219 C 322.476562 144.199219 321.550781 144.199219 320.601562 144.199219 C 318.332031 141.898438 318.332031 141.898438 315.789062 138.863281 C 312.238281 134.644531 312.238281 134.644531 308.386719 130.707031 C 306.601562 128.800781 306.601562 128.800781 306.601562 126 C 305.675781 126 304.753906 126 303.800781 126 C 301.433594 123.597656 301.433594 123.597656 298.8125 120.488281 C 297.945312 119.464844 297.078125 118.441406 296.183594 117.386719 C 295.101562 116.105469 295.101562 116.105469 294 114.800781 C 293.539062 114.339844 293.074219 113.875 292.601562 113.398438 C 292.25 109.289062 292.25 109.289062 292.601562 105 C 298.191406 101.273438 302.339844 102.386719 308.699219 103.164062 Z M 308.699219 103.164062 "/>
<path style=" stroke:none;fill-rule:nonzero;fill:rgb(88.627452%,89.019608%,89.019608%);fill-opacity:1;" d="M 233.800781 376.601562 C 236.839844 381.164062 238.492188 385.449219 240.363281 390.601562 C 241.324219 393.199219 241.324219 393.199219 242.304688 395.851562 C 243.601562 400.398438 243.601562 400.398438 242.199219 404.601562 C 239.894531 406.960938 237.5625 409.296875 235.199219 411.601562 C 233.46875 415.0625 233.863281 416.800781 234.324219 420.613281 C 234.453125 421.707031 234.578125 422.804688 234.707031 423.933594 C 235.152344 427.238281 235.152344 427.238281 236.601562 431.199219 C 245.339844 434.777344 256.421875 435.621094 265.125 432.074219 C 272.085938 430.875 274.707031 433.445312 280.4375 437.1875 C 296.503906 447.488281 314.679688 449.425781 333.199219 452.199219 C 333.382812 453.46875 333.382812 453.46875 333.566406 454.757812 C 334.550781 460.359375 335.273438 463.953125 339.039062 468.332031 C 346.875 472.421875 355.480469 471.582031 364 470.398438 C 372.417969 466.914062 379.695312 460.792969 383.359375 452.320312 C 384.070312 450.453125 384.757812 448.578125 385.40625 446.6875 C 385.734375 445.734375 386.0625 444.78125 386.398438 443.800781 C 386.769531 442.628906 387.136719 441.453125 387.515625 440.246094 C 389.59375 435.996094 391.707031 434.59375 395.675781 432.074219 C 403.78125 426.695312 411.753906 421.171875 417.199219 413 C 421.929688 413.84375 424.652344 415.664062 428.398438 418.601562 C 423.671875 441.324219 412.894531 457.285156 393.574219 470.570312 C 362.941406 488.988281 325.953125 494.046875 291.246094 485.46875 C 267.472656 479.019531 244.242188 466.566406 230.5625 445.460938 C 221.390625 429.117188 220.542969 412.597656 225.398438 394.730469 C 227.566406 388.34375 230.511719 382.472656 233.800781 376.601562 Z M 233.800781 376.601562 "/>
<path style=" stroke:none;fill-rule:nonzero;fill:rgb(35.294119%,36.862746%,39.215687%);fill-opacity:1;" d="M 411.601562 158.199219 C 417.925781 158.933594 421.417969 161.304688 426.386719 165.199219 C 427.875 166.351562 429.367188 167.5 430.855469 168.652344 C 431.609375 169.242188 432.363281 169.832031 433.140625 170.4375 C 443.675781 178.65625 454.378906 186.398438 465.640625 193.582031 C 469 196 469 196 471.800781 200.199219 C 474.128906 201.609375 476.460938 203.007812 478.800781 204.398438 C 483.632812 208.425781 484.910156 210.851562 485.800781 217 C 485.957031 220.136719 486.046875 223.277344 486.09375 226.417969 C 486.136719 228.207031 486.175781 229.996094 486.214844 231.84375 C 486.273438 234.667969 486.324219 237.496094 486.363281 240.320312 C 486.402344 243.066406 486.464844 245.808594 486.53125 248.554688 C 486.574219 251.007812 486.574219 251.007812 486.617188 253.507812 C 487.261719 258.035156 488.054688 258.929688 491.398438 261.800781 C 491.761719 265.972656 491.613281 269.382812 490.550781 273.4375 C 489.871094 278.085938 490.765625 281.257812 492.011719 285.773438 C 494.152344 294.296875 494.671875 302.050781 494.199219 310.800781 C 488.816406 313.769531 484.980469 314.035156 478.800781 313.601562 C 476.445312 312.722656 474.105469 311.796875 471.800781 310.800781 C 471.523438 298.675781 471.511719 287.230469 474.125 275.308594 C 474.816406 271.480469 474.816406 271.480469 473.71875 267.28125 C 473.546875 265.933594 473.375 264.585938 473.199219 263.199219 C 473.875 262.386719 474.546875 261.574219 475.242188 260.734375 C 478.210938 256.421875 477.878906 253.371094 477.808594 248.171875 C 477.796875 246.359375 477.78125 244.542969 477.769531 242.675781 C 477.734375 240.765625 477.699219 238.859375 477.664062 236.949219 C 477.640625 235.019531 477.621094 233.089844 477.605469 231.160156 C 477.554688 226.4375 477.488281 221.71875 477.398438 217 C 473.242188 216.308594 473.242188 216.308594 469 215.601562 C 469 215.136719 469 214.675781 469 214.199219 C 471.308594 214.199219 473.621094 214.199219 476 214.199219 C 472.832031 207.828125 469.140625 205.046875 463.136719 201.335938 C 460.382812 199.628906 457.65625 197.863281 455 196 C 455 195.074219 455 194.152344 455 193.199219 C 454.074219 192.941406 453.152344 192.679688 452.199219 192.414062 C 448.1875 190.488281 445.832031 188.636719 442.574219 185.675781 C 438.53125 182.007812 434.640625 179.21875 429.8125 176.625 C 425.964844 174.402344 422.335938 171.933594 418.6875 169.398438 C 417.347656 168.476562 416.003906 167.550781 414.625 166.601562 C 413.625 165.675781 412.628906 164.753906 411.601562 163.800781 C 411.601562 161.953125 411.601562 160.105469 411.601562 158.199219 Z M 411.601562 158.199219 "/>
<path style=" stroke:none;fill-rule:nonzero;fill:rgb(46.666667%,58.039218%,80.000001%);fill-opacity:1;" d="M 205.800781 91 C 210.085938 97 210.433594 101.960938 210 109.199219 C 208.222656 110.109375 206.441406 111.011719 204.664062 111.914062 C 203.671875 112.414062 202.679688 112.917969 201.660156 113.4375 C 198.800781 114.800781 198.800781 114.800781 194.601562 116.199219 C 196.742188 123.601562 199.042969 130.886719 201.671875 138.128906 C 207.257812 153.828125 207.257812 153.828125 204.398438 162.398438 C 201.515625 166.636719 199.363281 168.785156 194.429688 170.328125 C 188.492188 171.351562 185.496094 171.140625 179.988281 168.4375 C 174.589844 163.566406 173.78125 161.464844 173.074219 154.175781 C 173.257812 148.09375 175.128906 144.605469 179.199219 140 C 181.964844 138.535156 184.765625 137.125 187.601562 135.800781 C 187.261719 134.945312 186.921875 134.09375 186.570312 133.210938 C 185.035156 129.324219 183.519531 125.433594 182 121.539062 C 181.464844 120.195312 180.929688 118.851562 180.382812 117.464844 C 179.875 116.164062 179.371094 114.859375 178.851562 113.515625 C 178.378906 112.320312 177.910156 111.125 177.429688 109.894531 C 176.332031 106.164062 176.015625 103.265625 176.398438 99.398438 C 179.023438 97.210938 179.023438 97.210938 183.398438 95.199219 C 184.484375 94.6875 185.570312 94.179688 186.6875 93.652344 C 199.222656 88.113281 199.222656 88.113281 205.800781 91 Z M 205.800781 91 "/>
<path style=" stroke:none;fill-rule:nonzero;fill:rgb(18.82353%,21.960784%,24.705882%);fill-opacity:1;" d="M 236.601562 338.800781 C 237.0625 338.800781 237.523438 338.800781 238 338.800781 C 238.011719 339.617188 238.027344 340.429688 238.039062 341.273438 C 238.671875 372.867188 243.160156 398.597656 265.386719 422.449219 C 266.511719 423.488281 267.640625 424.527344 268.800781 425.601562 C 269.984375 426.726562 271.167969 427.851562 272.386719 429.011719 C 289.445312 442.910156 309.292969 445.839844 330.398438 446.601562 C 330.398438 447.0625 330.398438 447.523438 330.398438 448 C 327.628906 448 324.855469 448 322 448 C 322 448.925781 322 449.847656 322 450.800781 C 302.929688 450.050781 287.949219 443.296875 271.601562 434 C 270.675781 433.539062 269.753906 433.074219 268.800781 432.601562 C 267.585938 433.03125 266.375 433.464844 265.125 433.914062 C 256.089844 436.757812 248.066406 435.882812 239.289062 432.660156 C 236.601562 431.199219 236.601562 431.199219 233.710938 427.261719 C 232.304688 422.480469 231.679688 419.34375 232.398438 414.398438 C 235.257812 409.277344 237.304688 406.460938 242.199219 403.199219 C 239.84375 394.109375 237.179688 385.359375 233.800781 376.601562 C 232.101562 370.894531 232.300781 365.722656 232.398438 359.800781 C 233.785156 360.492188 233.785156 360.492188 235.199219 361.199219 C 235.660156 353.808594 236.125 346.414062 236.601562 338.800781 Z M 236.601562 338.800781 "/>
<path style=" stroke:none;fill-rule:nonzero;fill:rgb(31.764707%,31.764707%,31.764707%);fill-opacity:1;" d="M 330.398438 343 C 334.601562 342.648438 336.859375 342.683594 340.550781 344.835938 C 343.972656 348.136719 344.363281 350.773438 344.636719 355.445312 C 344.75 375.289062 344.75 375.289062 339.585938 382.023438 C 334.527344 385.667969 329.398438 385.515625 323.398438 385 C 318.65625 382.007812 316.785156 380.550781 315 375.199219 C 314.902344 371.847656 314.882812 368.492188 314.914062 365.136719 C 314.925781 363.355469 314.9375 361.574219 314.949219 359.738281 C 314.96875 358.375 314.984375 357.007812 315 355.601562 C 317.824219 355.738281 320.652344 355.875 323.476562 356.011719 C 324.375 355.875 325.273438 355.738281 326.199219 355.601562 C 329.175781 351.136719 329.703125 348.230469 330.398438 343 Z M 330.398438 343 "/>
<path style=" stroke:none;fill-rule:nonzero;fill:rgb(96.470588%,70.980394%,8.627451%);fill-opacity:1;" d="M 284.527344 360.46875 C 290.664062 361.628906 294.394531 364.761719 298.199219 369.601562 C 301.535156 375.167969 301.15625 378.664062 299.601562 385 C 297.046875 388.789062 295.296875 391.351562 291.199219 393.398438 C 283.039062 393.332031 275.960938 391.679688 268.800781 387.800781 C 267.324219 383.375 267.070312 379.941406 266.960938 375.289062 C 266.882812 373.101562 266.882812 373.101562 266.804688 370.875 C 267.398438 366.800781 267.398438 366.800781 269.761719 363.523438 C 274.699219 359.980469 278.605469 360.261719 284.527344 360.46875 Z M 284.527344 360.46875 "/>
<path style=" stroke:none;fill-rule:nonzero;fill:rgb(32.549021%,33.725491%,35.686275%);fill-opacity:1;" d="M 411.601562 158.199219 C 417.925781 158.933594 421.417969 161.304688 426.386719 165.199219 C 427.875 166.351562 429.367188 167.5 430.855469 168.652344 C 431.609375 169.242188 432.363281 169.832031 433.140625 170.4375 C 443.675781 178.65625 454.378906 186.398438 465.640625 193.582031 C 469 196 469 196 471.800781 200.199219 C 474.128906 201.609375 476.460938 203.007812 478.800781 204.398438 C 483.621094 208.417969 484.914062 210.863281 485.800781 217 C 485.890625 219.710938 485.921875 222.425781 485.886719 225.136719 C 485.875 226.503906 485.863281 227.871094 485.847656 229.277344 C 485.832031 230.308594 485.816406 231.339844 485.800781 232.398438 C 483.953125 231.9375 482.105469 231.476562 480.199219 231 C 480.199219 225.917969 480.199219 220.835938 480.199219 215.601562 C 476.503906 215.601562 472.808594 215.601562 469 215.601562 C 469 215.136719 469 214.675781 469 214.199219 C 471.308594 214.199219 473.621094 214.199219 476 214.199219 C 472.832031 207.828125 469.140625 205.046875 463.136719 201.335938 C 460.382812 199.628906 457.65625 197.863281 455 196 C 455 195.074219 455 194.152344 455 193.199219 C 454.074219 192.941406 453.152344 192.679688 452.199219 192.414062 C 448.1875 190.488281 445.832031 188.636719 442.574219 185.675781 C 438.53125 182.007812 434.640625 179.21875 429.8125 176.625 C 425.964844 174.402344 422.335938 171.933594 418.6875 169.398438 C 417.347656 168.476562 416.003906 167.550781 414.625 166.601562 C 413.625 165.675781 412.628906 164.753906 411.601562 163.800781 C 411.601562 161.953125 411.601562 160.105469 411.601562 158.199219 Z M 411.601562 158.199219 "/>
<path style=" stroke:none;fill-rule:nonzero;fill:rgb(39.607844%,40.392157%,43.137255%);fill-opacity:1;" d="M 477.398438 215.601562 C 478.324219 215.601562 479.246094 215.601562 480.199219 215.601562 C 480.253906 216.460938 480.304688 217.320312 480.359375 218.207031 C 480.449219 219.339844 480.542969 220.472656 480.636719 221.636719 C 480.71875 222.757812 480.800781 223.878906 480.882812 225.035156 C 481.308594 228.300781 481.308594 228.300781 483.710938 230.136719 C 486.332031 232.976562 486.332031 234.363281 486.367188 238.175781 C 486.398438 239.28125 486.429688 240.382812 486.460938 241.523438 C 486.488281 243.839844 486.511719 246.160156 486.539062 248.476562 C 486.570312 249.582031 486.601562 250.6875 486.632812 251.824219 C 486.640625 252.832031 486.652344 253.839844 486.660156 254.875 C 487.34375 258.332031 488.886719 259.421875 491.398438 261.800781 C 492.152344 268.421875 490.59375 273.765625 488.601562 280 C 487.675781 279.539062 486.753906 279.074219 485.800781 278.601562 C 485.800781 277.675781 485.800781 276.753906 485.800781 275.800781 C 482.425781 277.148438 480.535156 278.113281 478.449219 281.136719 C 477.246094 284.652344 477.195312 287.507812 477.398438 291.199219 C 475.320312 291.894531 475.320312 291.894531 473.199219 292.601562 C 473.199219 296.296875 473.199219 299.992188 473.199219 303.800781 C 474.125 304.261719 475.046875 304.722656 476 305.199219 C 475.074219 305.199219 474.152344 305.199219 473.199219 305.199219 C 473.660156 307.046875 474.125 308.894531 474.601562 310.800781 C 473.675781 310.800781 472.753906 310.800781 471.800781 310.800781 C 471.523438 298.675781 471.511719 287.230469 474.125 275.308594 C 474.816406 271.480469 474.816406 271.480469 473.71875 267.28125 C 473.460938 265.261719 473.460938 265.261719 473.199219 263.199219 C 473.875 262.394531 474.546875 261.585938 475.242188 260.753906 C 478.25 256.355469 477.878906 253.152344 477.808594 247.867188 C 477.804688 246.941406 477.796875 246.015625 477.792969 245.066406 C 477.769531 242.125 477.714844 239.1875 477.664062 236.25 C 477.640625 234.253906 477.621094 232.253906 477.605469 230.257812 C 477.558594 225.371094 477.488281 220.484375 477.398438 215.601562 Z M 477.398438 215.601562 "/>
<path style=" stroke:none;fill-rule:nonzero;fill:rgb(31.764707%,31.764707%,31.764707%);fill-opacity:1;" d="M 259 316.398438 C 264.601562 319.199219 264.601562 319.199219 267.398438 323.398438 C 267.996094 327.753906 267.855469 332.132812 267.835938 336.523438 C 267.859375 337.714844 267.882812 338.90625 267.90625 340.132812 C 267.910156 346.84375 267.71875 351.640625 263.199219 357 C 259.789062 357.875 259.789062 357.875 256.199219 357 C 250.738281 351.539062 249.292969 347.433594 249.0625 339.871094 C 249.078125 338.246094 249.097656 336.625 249.113281 334.949219 C 249.125 333.3125 249.136719 331.671875 249.152344 329.984375 C 249.167969 328.734375 249.183594 327.488281 249.199219 326.199219 C 250.125 326.199219 251.046875 326.199219 252 326.199219 C 252 327.125 252 328.046875 252 329 C 253.847656 329 255.695312 329 257.601562 329 C 258.0625 324.84375 258.523438 320.683594 259 316.398438 Z M 259 316.398438 "/>
<path style=" stroke:none;fill-rule:nonzero;fill:rgb(25.882354%,26.666668%,27.843139%);fill-opacity:1;" d="M 236.601562 338.800781 C 237.0625 338.800781 237.523438 338.800781 238 338.800781 C 238.011719 339.617188 238.027344 340.429688 238.039062 341.273438 C 238.355469 368.976562 238.355469 368.976562 246.597656 395.171875 C 247.800781 397.601562 247.800781 397.601562 247.539062 401.273438 C 246.398438 404.601562 246.398438 404.601562 242.199219 407.398438 C 240.8125 406.9375 239.429688 406.476562 238 406 C 239.386719 405.074219 240.773438 404.152344 242.199219 403.199219 C 239.84375 394.109375 237.179688 385.359375 233.800781 376.601562 C 232.101562 370.894531 232.300781 365.722656 232.398438 359.800781 C 233.785156 360.492188 233.785156 360.492188 235.199219 361.199219 C 235.660156 353.808594 236.125 346.414062 236.601562 338.800781 Z M 236.601562 338.800781 "/>
<path style=" stroke:none;fill-rule:nonzero;fill:rgb(54.509807%,62.352943%,78.431374%);fill-opacity:1;" d="M 200.199219 138.601562 C 204.824219 145.535156 206.625 151.527344 205.226562 159.742188 C 203.726562 164.5625 201.511719 166.574219 197.398438 169.398438 C 190.738281 171.484375 186.296875 171.535156 179.988281 168.4375 C 175.714844 164.582031 173.757812 162.566406 173.445312 156.757812 C 173.425781 153.96875 173.507812 151.183594 173.601562 148.398438 C 177.734375 152.53125 177.921875 156.738281 179.199219 162.398438 C 185.210938 164.167969 188.828125 163.28125 194.601562 161 C 194.601562 161.925781 194.601562 162.847656 194.601562 163.800781 C 195.984375 163.800781 197.371094 163.800781 198.800781 163.800781 C 200.488281 158.734375 200.351562 154.105469 200.289062 148.835938 C 200.28125 147.855469 200.273438 146.871094 200.269531 145.859375 C 200.25 143.441406 200.226562 141.019531 200.199219 138.601562 Z M 200.199219 138.601562 "/>
<path style=" stroke:none;fill-rule:nonzero;fill:rgb(52.156866%,60.392159%,76.47059%);fill-opacity:1;" d="M 179.199219 96.601562 C 180.125 97.0625 181.046875 97.523438 182 98 C 181.953125 98.78125 181.902344 99.558594 181.851562 100.363281 C 181.5625 108.566406 182.917969 114.28125 186.199219 121.800781 C 188.511719 120.875 190.820312 119.953125 193.199219 119 C 196.265625 123.597656 197.398438 127.691406 198.800781 133 C 197.414062 133.460938 196.027344 133.925781 194.601562 134.398438 C 194.136719 133.015625 193.675781 131.628906 193.199219 130.199219 C 191.351562 132.046875 189.503906 133.894531 187.601562 135.800781 C 185.714844 131.054688 183.855469 126.296875 182 121.539062 C 181.464844 120.195312 180.929688 118.851562 180.382812 117.464844 C 179.625 115.511719 179.625 115.511719 178.851562 113.515625 C 178.378906 112.320312 177.910156 111.125 177.429688 109.894531 C 176.328125 106.152344 176.007812 103.277344 176.398438 99.398438 C 177.324219 98.476562 178.246094 97.550781 179.199219 96.601562 Z M 179.199219 96.601562 "/>
<path style=" stroke:none;fill-rule:nonzero;fill:rgb(53.725493%,61.960787%,78.431374%);fill-opacity:1;" d="M 205.800781 91 C 210.085938 97 210.433594 101.960938 210 109.199219 C 207.199219 107.800781 207.199219 107.800781 205.800781 103.601562 C 204.414062 103.601562 203.027344 103.601562 201.601562 103.601562 C 201.601562 102.214844 201.601562 100.828125 201.601562 99.398438 C 195.535156 98.101562 190.867188 98.101562 184.800781 99.398438 C 184.339844 98.015625 183.875 96.628906 183.398438 95.199219 C 199.003906 88.015625 199.003906 88.015625 205.800781 91 Z M 205.800781 91 "/>
<path style=" stroke:none;fill-rule:nonzero;fill:rgb(99.215686%,96.862745%,82.352942%);fill-opacity:1;" d="M 295.398438 361.199219 C 295.574219 362.09375 295.746094 362.992188 295.925781 363.914062 C 296.214844 364.867188 296.503906 365.816406 296.800781 366.800781 C 297.722656 367.261719 298.648438 367.722656 299.601562 368.199219 C 298.214844 368.199219 296.828125 368.199219 295.398438 368.199219 C 294.476562 367.277344 293.550781 366.351562 292.601562 365.398438 C 286.367188 361.242188 280.300781 361.910156 273 362.601562 C 271.613281 363.0625 270.226562 363.523438 268.800781 364 C 268.761719 367.179688 268.734375 370.359375 268.710938 373.539062 C 268.695312 375.308594 268.679688 377.078125 268.664062 378.902344 C 268.574219 383.59375 268.574219 383.59375 270.199219 387.800781 C 272.511719 388.261719 274.820312 388.722656 277.199219 389.199219 C 277.199219 389.660156 277.199219 390.125 277.199219 390.601562 C 274.429688 390.601562 271.65625 390.601562 268.800781 390.601562 C 268.339844 389.214844 267.875 387.828125 267.398438 386.398438 C 266.476562 386.398438 265.550781 386.398438 264.601562 386.398438 C 262.5 378.988281 262.40625 371.582031 264.164062 364.085938 C 270.464844 354.1875 286.113281 358.039062 295.398438 361.199219 Z M 295.398438 361.199219 "/>
<path style=" stroke:none;fill-rule:nonzero;fill:rgb(35.686275%,36.470589%,37.254903%);fill-opacity:1;" d="M 271.601562 432.601562 C 277.355469 433.054688 281.613281 434.679688 286.648438 437.324219 C 301.0625 444.722656 314.460938 446.027344 330.398438 446.601562 C 330.398438 447.0625 330.398438 447.523438 330.398438 448 C 327.628906 448 324.855469 448 322 448 C 322 448.925781 322 449.847656 322 450.800781 C 302.925781 450.050781 287.875 443.34375 271.601562 434 C 271.601562 433.539062 271.601562 433.074219 271.601562 432.601562 Z M 271.601562 432.601562 "/>
<path style=" stroke:none;fill-rule:nonzero;fill:rgb(45.490196%,45.882353%,47.843137%);fill-opacity:1;" d="M 477.398438 215.601562 C 478.324219 215.601562 479.246094 215.601562 480.199219 215.601562 C 480.253906 216.445312 480.304688 217.289062 480.359375 218.160156 C 480.449219 219.277344 480.542969 220.398438 480.636719 221.550781 C 480.71875 222.65625 480.800781 223.757812 480.882812 224.898438 C 481.339844 228.316406 481.339844 228.316406 483.789062 230.648438 C 486.953125 235.605469 485.894531 240.359375 485.363281 246.050781 C 485.277344 247.160156 485.191406 248.269531 485.101562 249.414062 C 484.890625 252.144531 484.648438 254.871094 484.398438 257.601562 C 483.9375 257.601562 483.476562 257.601562 483 257.601562 C 482.539062 255.289062 482.074219 252.980469 481.601562 250.601562 C 481.136719 253.371094 480.675781 256.144531 480.199219 259 C 479.277344 258.539062 478.351562 258.074219 477.398438 257.601562 C 477.398438 243.738281 477.398438 229.878906 477.398438 215.601562 Z M 477.398438 215.601562 "/>
<path style=" stroke:none;fill-rule:nonzero;fill:rgb(27.843139%,27.843139%,28.627452%);fill-opacity:1;" d="M 302.398438 102.199219 C 303.363281 104.5625 303.363281 104.5625 303.800781 107.800781 C 301.789062 111.648438 301.789062 111.648438 299.601562 114.800781 C 300.523438 114.800781 301.449219 114.800781 302.398438 114.800781 C 305.257812 118.867188 306.601562 120.960938 306.601562 126 C 305.675781 126 304.753906 126 303.800781 126 C 301.433594 123.597656 301.433594 123.597656 298.8125 120.488281 C 297.945312 119.464844 297.078125 118.441406 296.183594 117.386719 C 295.101562 116.105469 295.101562 116.105469 294 114.800781 C 293.539062 114.339844 293.074219 113.875 292.601562 113.398438 C 292.25 109.289062 292.25 109.289062 292.601562 105 C 296.800781 102.199219 296.800781 102.199219 302.398438 102.199219 Z M 302.398438 102.199219 "/>
<path style=" stroke:none;fill-rule:nonzero;fill:rgb(91.764706%,60.784316%,3.137255%);fill-opacity:1;" d="M 298.199219 383.601562 C 296.449219 388.714844 295.859375 390.292969 291.199219 393.398438 C 288.035156 393.367188 288.035156 393.367188 284.636719 392.875 C 282.941406 392.640625 282.941406 392.640625 281.207031 392.40625 C 279.917969 392.203125 279.917969 392.203125 278.601562 392 C 278.136719 390.613281 277.675781 389.226562 277.199219 387.800781 C 280.171875 386.824219 283.148438 385.867188 286.125 384.914062 C 288.609375 384.109375 288.609375 384.109375 291.144531 383.289062 C 295.398438 382.199219 295.398438 382.199219 298.199219 383.601562 Z M 298.199219 383.601562 "/>
<path style=" stroke:none;fill-rule:nonzero;fill:rgb(92.156863%,73.725492%,25.882354%);fill-opacity:1;" d="M 280.875 360.675781 C 282.222656 360.691406 283.566406 360.710938 284.953125 360.730469 C 288.398438 361.199219 288.398438 361.199219 291.199219 364 C 287.503906 364.460938 283.808594 364.925781 280 365.398438 C 280 366.324219 280 367.246094 280 368.199219 C 276.304688 368.199219 272.609375 368.199219 268.800781 368.199219 C 269.15625 371.179688 269.539062 374.152344 269.9375 377.125 C 270.148438 378.78125 270.359375 380.4375 270.578125 382.144531 C 271.191406 386.8125 271.191406 386.8125 275.800781 389.199219 C 273.488281 388.738281 271.179688 388.277344 268.800781 387.800781 C 267.324219 383.375 267.070312 379.941406 266.960938 375.289062 C 266.882812 373.101562 266.882812 373.101562 266.804688 370.875 C 267.398438 366.800781 267.398438 366.800781 269.734375 363.503906 C 273.761719 360.664062 275.992188 360.53125 280.875 360.675781 Z M 280.875 360.675781 "/>
<path style=" stroke:none;fill-rule:nonzero;fill:rgb(35.294119%,35.294119%,35.294119%);fill-opacity:1;" d="M 330.398438 343 C 334.804688 342.632812 336.867188 342.652344 340.636719 345.101562 C 341.808594 346.140625 341.808594 346.140625 343 347.199219 C 342.539062 348.585938 342.074219 349.972656 341.601562 351.398438 C 340.214844 351.398438 338.828125 351.398438 337.398438 351.398438 C 336.9375 350.9375 336.476562 350.476562 336 350 C 334.152344 351.847656 332.304688 353.695312 330.398438 355.601562 C 329.476562 355.136719 328.550781 354.675781 327.601562 354.199219 C 328.523438 350.503906 329.449219 346.808594 330.398438 343 Z M 330.398438 343 "/>
<path style=" stroke:none;fill-rule:nonzero;fill:rgb(59.607846%,65.490198%,78.039217%);fill-opacity:1;" d="M 179.199219 96.601562 C 180.125 97.0625 181.046875 97.523438 182 98 C 181.871094 100.730469 181.871094 100.730469 181.738281 103.511719 C 181.699219 109.757812 183.0625 114.59375 185.417969 120.339844 C 186.339844 123.710938 185.746094 125.496094 184.800781 128.800781 C 183.386719 125.21875 181.988281 121.628906 180.601562 118.039062 C 180.199219 117.027344 179.796875 116.019531 179.386719 114.976562 C 175.566406 105.019531 175.566406 105.019531 176.398438 99.398438 C 177.324219 98.476562 178.246094 97.550781 179.199219 96.601562 Z M 179.199219 96.601562 "/>
<path style=" stroke:none;fill-rule:nonzero;fill:rgb(41.176471%,42.745098%,43.921569%);fill-opacity:1;" d="M 236.601562 338.800781 C 237.0625 338.800781 237.523438 338.800781 238 338.800781 C 238.078125 343 238.132812 347.199219 238.175781 351.398438 C 238.199219 352.574219 238.222656 353.75 238.246094 354.960938 C 238.304688 362.671875 237.378906 369.195312 235.199219 376.601562 C 231.558594 371.140625 232.1875 366.136719 232.398438 359.800781 C 233.785156 360.492188 233.785156 360.492188 235.199219 361.199219 C 235.660156 353.808594 236.125 346.414062 236.601562 338.800781 Z M 236.601562 338.800781 "/>
<path style=" stroke:none;fill-rule:nonzero;fill:rgb(30.980393%,32.941177%,35.294119%);fill-opacity:1;" d="M 263.199219 221.199219 C 264.585938 221.660156 265.972656 222.125 267.398438 222.601562 C 267.398438 223.523438 267.398438 224.449219 267.398438 225.398438 C 266.476562 225.398438 265.550781 225.398438 264.601562 225.398438 C 264.542969 226.640625 264.484375 227.882812 264.425781 229.164062 C 262.75 235.503906 260.03125 237.015625 254.800781 240.800781 C 254.339844 239.875 253.875 238.953125 253.398438 238 C 255.40625 234.050781 255.40625 234.050781 258.210938 229.425781 C 259.597656 227.125 259.597656 227.125 261.007812 224.777344 C 261.730469 223.597656 262.453125 222.417969 263.199219 221.199219 Z M 263.199219 221.199219 "/>
<path style=" stroke:none;fill-rule:nonzero;fill:rgb(31.37255%,31.764707%,33.725491%);fill-opacity:1;" d="M 484.398438 233.800781 C 484.863281 233.800781 485.324219 233.800781 485.800781 233.800781 C 485.800781 242.578125 485.800781 251.355469 485.800781 260.398438 C 483.027344 261.785156 483.027344 261.785156 480.199219 263.199219 C 479.277344 262.738281 478.351562 262.277344 477.398438 261.800781 C 477.398438 260.875 477.398438 259.953125 477.398438 259 C 478.324219 259 479.246094 259 480.199219 259 C 480.199219 255.765625 480.199219 252.53125 480.199219 249.199219 C 481.125 249.660156 482.046875 250.125 483 250.601562 C 483.460938 245.054688 483.925781 239.511719 484.398438 233.800781 Z M 484.398438 233.800781 "/>
<path style=" stroke:none;fill-rule:nonzero;fill:rgb(44.313726%,45.09804%,46.666667%);fill-opacity:1;" d="M 466.199219 417.199219 C 462.214844 422.113281 460.316406 424.054688 453.921875 424.882812 C 452.035156 424.835938 450.148438 424.753906 448.261719 424.636719 C 447.292969 424.605469 446.324219 424.574219 445.324219 424.542969 C 442.949219 424.460938 440.574219 424.335938 438.199219 424.199219 C 438.199219 423.738281 438.199219 423.277344 438.199219 422.800781 C 443.742188 422.800781 449.289062 422.800781 455 422.800781 C 455 421.414062 455 420.027344 455 418.601562 C 458.792969 416.703125 462.011719 417.109375 466.199219 417.199219 Z M 466.199219 417.199219 "/>
<path style=" stroke:none;fill-rule:nonzero;fill:rgb(43.137255%,43.137255%,43.137255%);fill-opacity:1;" d="M 259 316.398438 C 263.425781 318.316406 264.589844 319.183594 267.398438 323.398438 C 267.71875 326.320312 267.71875 326.320312 267.671875 329.628906 C 267.664062 330.816406 267.65625 332.003906 267.644531 333.222656 C 267.621094 334.457031 267.597656 335.691406 267.574219 336.960938 C 267.5625 338.210938 267.550781 339.460938 267.535156 340.75 C 267.503906 343.832031 267.457031 346.917969 267.398438 350 C 266.9375 350 266.476562 350 266 350 C 265.539062 341.683594 265.074219 333.367188 264.601562 324.800781 C 262.753906 324.800781 260.902344 324.800781 259 324.800781 C 259 322.027344 259 319.257812 259 316.398438 Z M 259 316.398438 "/>
<path style=" stroke:none;fill-rule:nonzero;fill:rgb(57.254905%,57.647061%,59.607846%);fill-opacity:1;" d="M 492.800781 295.398438 C 493.261719 295.398438 493.722656 295.398438 494.199219 295.398438 C 494.199219 300.480469 494.199219 305.5625 494.199219 310.800781 C 488.296875 313.75 485.242188 313.847656 478.800781 313.601562 C 478.800781 313.136719 478.800781 312.675781 478.800781 312.199219 C 481.109375 311.738281 483.421875 311.277344 485.800781 310.800781 C 485.800781 308.953125 485.800781 307.105469 485.800781 305.199219 C 487.648438 305.199219 489.496094 305.199219 491.398438 305.199219 C 491.863281 301.964844 492.324219 298.730469 492.800781 295.398438 Z M 492.800781 295.398438 "/>
<path style=" stroke:none;fill-rule:nonzero;fill:rgb(55.29412%,62.7451%,76.078433%);fill-opacity:1;" d="M 189 138.601562 C 189.460938 139.984375 189.925781 141.371094 190.398438 142.800781 C 189.609375 142.96875 188.816406 143.140625 188 143.3125 C 186.457031 143.664062 186.457031 143.664062 184.886719 144.023438 C 183.351562 144.367188 183.351562 144.367188 181.785156 144.714844 C 178.910156 145.363281 178.910156 145.363281 177.800781 148.398438 C 176.875 148.398438 175.953125 148.398438 175 148.398438 C 177.042969 141.929688 177.042969 141.929688 180.425781 139.5625 C 183.398438 138.601562 183.398438 138.601562 189 138.601562 Z M 189 138.601562 "/>
<path style=" stroke:none;fill-rule:nonzero;fill:rgb(22.352941%,25.490198%,27.450982%);fill-opacity:1;" d="M 378 455 C 379.386719 455.460938 380.773438 455.925781 382.199219 456.398438 C 380.898438 458.011719 379.582031 459.613281 378.261719 461.210938 C 377.167969 462.550781 377.167969 462.550781 376.046875 463.917969 C 373.800781 466.199219 373.800781 466.199219 369.601562 467.601562 C 369.136719 466.675781 368.675781 465.753906 368.199219 464.800781 C 370.089844 459.136719 372.886719 457.863281 378 455 Z M 378 455 "/>
<path style=" stroke:none;fill-rule:nonzero;fill:rgb(84.313726%,85.490197%,86.274511%);fill-opacity:1;" d="M 233.800781 376.601562 C 239.710938 385.464844 239.710938 385.464844 238.875 391.738281 C 238.585938 392.75 238.296875 393.757812 238 394.800781 C 236.152344 393.875 234.304688 392.953125 232.398438 392 C 232.863281 390.613281 233.324219 389.226562 233.800781 387.800781 C 232.875 387.339844 231.953125 386.875 231 386.398438 C 231.925781 383.164062 232.847656 379.933594 233.800781 376.601562 Z M 233.800781 376.601562 "/>
<path style=" stroke:none;fill-rule:nonzero;fill:rgb(23.921569%,23.921569%,25.098041%);fill-opacity:1;" d="M 309.398438 114.800781 C 312.199219 120.050781 312.199219 120.050781 312.199219 123.199219 C 311.277344 123.199219 310.351562 123.199219 309.398438 123.199219 C 309.398438 125.511719 309.398438 127.820312 309.398438 130.199219 C 306.601562 128.800781 306.601562 128.800781 305.113281 124.773438 C 304.679688 123.332031 304.246094 121.886719 303.800781 120.398438 C 303.339844 119.015625 302.875 117.628906 302.398438 116.199219 C 305.199219 114.800781 305.199219 114.800781 309.398438 114.800781 Z M 309.398438 114.800781 "/>
<path style=" stroke:none;fill-rule:nonzero;fill:rgb(30.19608%,31.764707%,32.156864%);fill-opacity:1;" d="M 306.601562 446.601562 C 314.453125 446.601562 322.308594 446.601562 330.398438 446.601562 C 330.398438 447.0625 330.398438 447.523438 330.398438 448 C 327.628906 448 324.855469 448 322 448 C 322 448.925781 322 449.847656 322 450.800781 C 316.917969 450.339844 311.835938 449.875 306.601562 449.398438 C 306.601562 448.476562 306.601562 447.550781 306.601562 446.601562 Z M 306.601562 446.601562 "/>
<path style=" stroke:none;fill-rule:nonzero;fill:rgb(25.882354%,28.235295%,29.803923%);fill-opacity:1;" d="M 243.601562 392 C 245.789062 394.363281 245.789062 394.363281 247.800781 397.601562 C 247.625 401.273438 247.625 401.273438 246.398438 404.601562 C 245.015625 405.523438 243.628906 406.449219 242.199219 407.398438 C 240.8125 406.9375 239.429688 406.476562 238 406 C 239.386719 405.074219 240.773438 404.152344 242.199219 403.199219 C 241.765625 401.207031 241.765625 401.207031 241.324219 399.175781 C 241.152344 397.730469 240.976562 396.289062 240.800781 394.800781 C 241.722656 393.875 242.648438 392.953125 243.601562 392 Z M 243.601562 392 "/>
<path style=" stroke:none;fill-rule:nonzero;fill:rgb(38.039216%,39.215687%,41.176471%);fill-opacity:1;" d="M 464.800781 392 C 467.964844 397.03125 467.890625 401.191406 467.773438 407.050781 C 467.75 408.6875 467.722656 410.328125 467.699219 412.015625 C 467.648438 413.890625 467.648438 413.890625 467.601562 415.800781 C 467.136719 413.953125 466.675781 412.105469 466.199219 410.199219 C 464.8125 410.660156 463.429688 411.125 462 411.601562 C 462.492188 410.070312 462.980469 408.539062 463.488281 406.960938 C 465.261719 401.925781 465.261719 401.925781 463.398438 397.601562 C 464.011719 394.539062 464.011719 394.539062 464.800781 392 Z M 464.800781 392 "/>
<path style=" stroke:none;fill-rule:nonzero;fill:rgb(16.862746%,18.82353%,20.392157%);fill-opacity:1;" d="M 235.199219 340.199219 C 235.660156 340.199219 236.125 340.199219 236.601562 340.199219 C 236.601562 347.128906 236.601562 354.058594 236.601562 361.199219 C 235.214844 361.894531 235.214844 361.894531 233.800781 362.601562 C 230.230469 355.464844 233.203125 347.4375 235.199219 340.199219 Z M 235.199219 340.199219 "/>
<path style=" stroke:none;fill-rule:nonzero;fill:rgb(23.529412%,26.274511%,28.235295%);fill-opacity:1;" d="M 235.199219 330.398438 C 236.125 331.324219 237.046875 332.246094 238 333.199219 C 237.648438 336.175781 237.648438 336.175781 236.601562 340.199219 C 236.101562 342.210938 235.609375 344.226562 235.113281 346.238281 C 234.679688 347.941406 234.246094 349.644531 233.800781 351.398438 C 231.953125 350.476562 230.105469 349.550781 228.199219 348.601562 C 229.585938 347.675781 230.972656 346.753906 232.398438 345.800781 C 233.164062 342.449219 233.164062 342.449219 233.273438 338.710938 C 233.683594 331.914062 233.683594 331.914062 235.199219 330.398438 Z M 235.199219 330.398438 "/>
<path style=" stroke:none;fill-rule:nonzero;fill:rgb(30.588236%,31.37255%,32.941177%);fill-opacity:1;" d="M 483 218.398438 C 483.925781 218.863281 484.847656 219.324219 485.800781 219.800781 C 485.800781 223.957031 485.800781 228.117188 485.800781 232.398438 C 483.953125 231.9375 482.105469 231.476562 480.199219 231 C 480.199219 227.304688 480.199219 223.609375 480.199219 219.800781 C 481.125 219.339844 482.046875 218.875 483 218.398438 Z M 483 218.398438 "/>
<path style=" stroke:none;fill-rule:nonzero;fill:rgb(52.941179%,53.725493%,55.29412%);fill-opacity:1;" d="M 473.199219 281.398438 C 473.660156 281.398438 474.125 281.398438 474.601562 281.398438 C 474.601562 284.171875 474.601562 286.945312 474.601562 289.800781 C 475.523438 290.261719 476.449219 290.722656 477.398438 291.199219 C 476.015625 291.660156 474.628906 292.125 473.199219 292.601562 C 473.199219 296.296875 473.199219 299.992188 473.199219 303.800781 C 474.125 304.261719 475.046875 304.722656 476 305.199219 C 475.074219 305.199219 474.152344 305.199219 473.199219 305.199219 C 473.660156 307.046875 474.125 308.894531 474.601562 310.800781 C 473.675781 310.800781 472.753906 310.800781 471.800781 310.800781 C 471.761719 307.210938 471.734375 303.625 471.710938 300.039062 C 471.699219 299.027344 471.6875 298.019531 471.675781 296.976562 C 471.652344 291.597656 471.890625 286.628906 473.199219 281.398438 Z M 473.199219 281.398438 "/>
<path style=" stroke:none;fill-rule:nonzero;fill:rgb(76.47059%,77.64706%,77.254903%);fill-opacity:1;" d="M 336 466.199219 C 336.835938 466.863281 337.675781 467.527344 338.539062 468.210938 C 344.960938 471.359375 351.332031 471.441406 358.398438 471.800781 C 358.398438 472.261719 358.398438 472.722656 358.398438 473.199219 C 351.46875 473.660156 344.539062 474.125 337.398438 474.601562 C 336 469 336 469 336 466.199219 Z M 336 466.199219 "/>
<path style=" stroke:none;fill-rule:nonzero;fill:rgb(86.274511%,63.921571%,28.235295%);fill-opacity:1;" d="M 294 386.398438 C 294.925781 386.398438 295.847656 386.398438 296.800781 386.398438 C 294.351562 391.824219 294.351562 391.824219 291.199219 393.398438 C 288.21875 393.328125 288.21875 393.328125 284.8125 392.960938 C 283.683594 392.851562 282.558594 392.742188 281.394531 392.628906 C 280.472656 392.421875 279.550781 392.214844 278.601562 392 C 278.136719 391.074219 277.675781 390.152344 277.199219 389.199219 C 282.742188 389.199219 288.289062 389.199219 294 389.199219 C 294 388.277344 294 387.351562 294 386.398438 Z M 294 386.398438 "/>
<path style=" stroke:none;fill-rule:nonzero;fill:rgb(98.039216%,92.941177%,72.941178%);fill-opacity:1;" d="M 275.800781 359.800781 C 278.015625 359.761719 280.234375 359.734375 282.449219 359.710938 C 284.300781 359.6875 284.300781 359.6875 286.191406 359.664062 C 289.496094 359.789062 292.242188 360.261719 295.398438 361.199219 C 295.574219 362.09375 295.746094 362.992188 295.925781 363.914062 C 296.214844 364.867188 296.503906 365.816406 296.800781 366.800781 C 297.722656 367.261719 298.648438 367.722656 299.601562 368.199219 C 295.398438 368.199219 295.398438 368.199219 292.425781 365.488281 C 287.03125 361.621094 282.292969 361.484375 275.800781 361.199219 C 275.800781 360.738281 275.800781 360.277344 275.800781 359.800781 Z M 275.800781 359.800781 "/>
<path style=" stroke:none;fill-rule:nonzero;fill:rgb(36.078432%,36.470589%,38.431373%);fill-opacity:1;" d="M 245 261.800781 C 245.460938 261.800781 245.925781 261.800781 246.398438 261.800781 C 245.9375 266.882812 245.476562 271.964844 245 277.199219 C 243.613281 277.199219 242.226562 277.199219 240.800781 277.199219 C 241.851562 266.523438 241.851562 266.523438 245 261.800781 Z M 245 261.800781 "/>
<path style=" stroke:none;fill-rule:nonzero;fill:rgb(99.607843%,94.509804%,81.568629%);fill-opacity:1;" d="M 277.199219 390.601562 C 278.179688 390.699219 279.15625 390.800781 280.164062 390.90625 C 281.4375 391.035156 282.710938 391.167969 284.023438 391.300781 C 285.292969 391.429688 286.558594 391.558594 287.863281 391.695312 C 291.105469 392.042969 291.105469 392.042969 294 392 C 294 392.925781 294 393.847656 294 394.800781 C 289.097656 396.433594 285.144531 396.386719 280 396.199219 C 279.074219 395.738281 278.152344 395.277344 277.199219 394.800781 C 277.199219 393.414062 277.199219 392.027344 277.199219 390.601562 Z M 277.199219 390.601562 "/>
<path style=" stroke:none;fill-rule:nonzero;fill:rgb(25.098041%,27.450982%,29.411766%);fill-opacity:1;" d="M 236.601562 309.398438 C 239.308594 314.816406 239.726562 316.609375 239.574219 322.351562 C 239.550781 323.597656 239.523438 324.847656 239.5 326.132812 C 239.464844 327.078125 239.433594 328.027344 239.398438 329 C 238.9375 327.613281 238.476562 326.226562 238 324.800781 C 237.074219 324.800781 236.152344 324.800781 235.199219 324.800781 C 235.660156 319.71875 236.125 314.636719 236.601562 309.398438 Z M 236.601562 309.398438 "/>
<path style=" stroke:none;fill-rule:nonzero;fill:rgb(22.745098%,23.921569%,24.705882%);fill-opacity:1;" d="M 236.601562 365.398438 C 240.351562 371.027344 239.617188 374.136719 239.398438 380.800781 C 238.015625 380.800781 236.628906 380.800781 235.199219 380.800781 C 235.660156 375.71875 236.125 370.636719 236.601562 365.398438 Z M 236.601562 365.398438 "/>
<path style=" stroke:none;fill-rule:nonzero;fill:rgb(43.921569%,44.313726%,46.666667%);fill-opacity:1;" d="M 215.601562 319.199219 C 217 322 217 322 216.316406 324.882812 C 215.9375 325.980469 215.554688 327.082031 215.164062 328.210938 C 214.792969 329.308594 214.421875 330.402344 214.042969 331.53125 C 212.800781 334.601562 212.800781 334.601562 210 338.800781 C 208.605469 335.078125 208.28125 332.636719 209.703125 328.890625 C 213.5 321.300781 213.5 321.300781 215.601562 319.199219 Z M 215.601562 319.199219 "/>
<path style=" stroke:none;fill-rule:nonzero;fill:rgb(32.156864%,32.156864%,32.941177%);fill-opacity:1;" d="M 271.601562 432.601562 C 278.597656 433.265625 282.769531 435.445312 288.398438 439.601562 C 284.199219 441 284.199219 441 281.035156 439.605469 C 279.914062 438.941406 278.792969 438.273438 277.636719 437.585938 C 276.507812 436.925781 275.375 436.261719 274.207031 435.582031 C 273.347656 435.058594 272.488281 434.539062 271.601562 434 C 271.601562 433.539062 271.601562 433.074219 271.601562 432.601562 Z M 271.601562 432.601562 "/>
<path style=" stroke:none;fill-rule:nonzero;fill:rgb(58.431375%,64.705884%,78.431374%);fill-opacity:1;" d="M 173.601562 148.398438 C 177.09375 151.894531 176.902344 153.542969 177.273438 158.375 C 177.378906 159.648438 177.484375 160.921875 177.59375 162.234375 C 177.695312 163.703125 177.695312 163.703125 177.800781 165.199219 C 175 163.800781 175 163.800781 173.601562 159.601562 C 173.421875 155.855469 173.539062 152.152344 173.601562 148.398438 Z M 173.601562 148.398438 "/>
<path style=" stroke:none;fill-rule:nonzero;fill:rgb(47.843137%,55.686277%,72.941178%);fill-opacity:1;" d="M 197.398438 133 C 201.609375 137.207031 201.035156 141.152344 201.601562 147 C 196.113281 142.371094 196.113281 142.371094 195.5625 137.636719 C 196 134.398438 196 134.398438 197.398438 133 Z M 197.398438 133 "/>
<path style=" stroke:none;fill-rule:nonzero;fill:rgb(21.960784%,24.705882%,27.058825%);fill-opacity:1;" d="M 375.199219 414.398438 C 377.046875 414.863281 378.894531 415.324219 380.800781 415.800781 C 380.339844 417.1875 379.875 418.570312 379.398438 420 C 377.546875 420.519531 375.679688 420.988281 373.800781 421.398438 C 373.339844 422.324219 372.875 423.246094 372.398438 424.199219 C 372.398438 419.851562 373.15625 418.105469 375.199219 414.398438 Z M 375.199219 414.398438 "/>
<path style=" stroke:none;fill-rule:nonzero;fill:rgb(38.431373%,40.784314%,42.352942%);fill-opacity:1;" d="M 281.398438 201.601562 C 282.273438 204.226562 282.273438 204.226562 282.800781 207.199219 C 281.875 208.125 280.953125 209.046875 280 210 C 277.023438 209.476562 277.023438 209.476562 274.398438 208.601562 C 274.863281 207.675781 275.324219 206.753906 275.800781 205.800781 C 276.722656 205.800781 277.648438 205.800781 278.601562 205.800781 C 278.601562 204.875 278.601562 203.953125 278.601562 203 C 279.523438 202.539062 280.449219 202.074219 281.398438 201.601562 Z M 281.398438 201.601562 "/>
<path style=" stroke:none;fill-rule:nonzero;fill:rgb(40.000001%,40.392157%,40.784314%);fill-opacity:1;" d="M 509.601562 200.199219 C 512.371094 202.511719 515.144531 204.820312 518 207.199219 C 516.613281 208.125 515.226562 209.046875 513.800781 210 C 511.953125 208.613281 510.105469 207.226562 508.199219 205.800781 C 508.660156 203.953125 509.125 202.105469 509.601562 200.199219 Z M 509.601562 200.199219 "/>
<path style=" stroke:none;fill-rule:nonzero;fill:rgb(48.235294%,48.235294%,48.627451%);fill-opacity:1;" d="M 302.398438 102.199219 C 302.398438 103.125 302.398438 104.046875 302.398438 105 C 300.753906 105.519531 300.753906 105.519531 299.074219 106.050781 C 294.949219 108.015625 294.136719 109.210938 292.601562 113.398438 C 292.335938 109.375 292.335938 109.375 292.601562 105 C 296.800781 102.199219 296.800781 102.199219 302.398438 102.199219 Z M 302.398438 102.199219 "/>
<path style=" stroke:none;fill-rule:nonzero;fill:rgb(17.647059%,17.647059%,18.431373%);fill-opacity:1;" d="M 466.199219 158.199219 C 468.972656 158.894531 468.972656 158.894531 471.800781 159.601562 C 472.261719 161.449219 472.722656 163.296875 473.199219 165.199219 C 470.164062 164.492188 467.601562 163.800781 464.800781 162.398438 C 465.261719 161.015625 465.722656 159.628906 466.199219 158.199219 Z M 466.199219 158.199219 "/>
<path style=" stroke:none;fill-rule:nonzero;fill:rgb(20%,23.529412%,25.882354%);fill-opacity:1;" d="M 396.199219 427 C 396.660156 428.847656 397.125 430.695312 397.601562 432.601562 C 394.828125 433.984375 394.828125 433.984375 392 435.398438 C 391.539062 433.089844 391.074219 430.78125 390.601562 428.398438 C 393.398438 427 393.398438 427 396.199219 427 Z M 396.199219 427 "/>
<path style=" stroke:none;fill-rule:nonzero;fill:rgb(33.725491%,37.64706%,39.215687%);fill-opacity:1;" d="M 455 320.601562 C 456.550781 325.253906 456.183594 328.46875 455 333.199219 C 453.019531 329.503906 451.679688 326.101562 450.800781 322 C 452.1875 321.539062 453.570312 321.074219 455 320.601562 Z M 455 320.601562 "/>
<path style=" stroke:none;fill-rule:nonzero;fill:rgb(32.941177%,33.333334%,35.686275%);fill-opacity:1;" d="M 473.199219 292.601562 C 475.046875 294.449219 476.894531 296.296875 478.800781 298.199219 C 477.875 300.046875 476.953125 301.894531 476 303.800781 C 475.074219 303.800781 474.152344 303.800781 473.199219 303.800781 C 473.199219 300.105469 473.199219 296.40625 473.199219 292.601562 Z M 473.199219 292.601562 "/>
<path style=" stroke:none;fill-rule:nonzero;fill:rgb(44.313726%,45.09804%,47.058824%);fill-opacity:1;" d="M 476 271.601562 C 476.460938 272.523438 476.925781 273.449219 477.398438 274.398438 C 478.324219 274.398438 479.246094 274.398438 480.199219 274.398438 C 480.660156 273.476562 481.125 272.550781 481.601562 271.601562 C 481.042969 275.640625 480.492188 276.949219 477.3125 279.648438 C 476.417969 280.226562 475.523438 280.804688 474.601562 281.398438 C 475.0625 278.164062 475.523438 274.933594 476 271.601562 Z M 476 271.601562 "/>
<path style=" stroke:none;fill-rule:nonzero;fill:rgb(17.254902%,16.862746%,18.039216%);fill-opacity:1;" d="M 443.800781 137.199219 C 446.144531 137.601562 448.480469 138.066406 450.800781 138.601562 C 450.339844 139.984375 449.875 141.371094 449.398438 142.800781 C 447.089844 142.800781 444.78125 142.800781 442.398438 142.800781 C 442.398438 138.601562 442.398438 138.601562 443.800781 137.199219 Z M 443.800781 137.199219 "/>
<path style=" stroke:none;fill-rule:nonzero;fill:rgb(22.352941%,24.705882%,26.666668%);fill-opacity:1;" d="M 334.601562 462 C 335.984375 462 337.371094 462 338.800781 462 C 341.863281 465.5 341.863281 465.5 344.398438 469 C 343.015625 469.691406 343.015625 469.691406 341.601562 470.398438 C 339.210938 468.605469 336.875 466.734375 334.601562 464.800781 C 334.601562 463.875 334.601562 462.953125 334.601562 462 Z M 334.601562 462 "/>
<path style=" stroke:none;fill-rule:nonzero;fill:rgb(34.901962%,37.64706%,38.431373%);fill-opacity:1;" d="M 455 299.601562 C 456.386719 300.0625 457.773438 300.523438 459.199219 301 C 459.199219 304.234375 459.199219 307.46875 459.199219 310.800781 C 457.101562 309.136719 457.101562 309.136719 455 306.601562 C 454.738281 302.835938 454.738281 302.835938 455 299.601562 Z M 455 299.601562 "/>
<path style=" stroke:none;fill-rule:nonzero;fill:rgb(60.000002%,65.490198%,74.901962%);fill-opacity:1;" d="M 207.199219 96.601562 C 210 99.398438 210 99.398438 210.175781 104.476562 C 210.117188 106.035156 210.058594 107.59375 210 109.199219 C 209.074219 108.738281 208.152344 108.277344 207.199219 107.800781 C 206.238281 102.898438 206.238281 102.898438 205.800781 98 C 206.261719 97.539062 206.722656 97.074219 207.199219 96.601562 Z M 207.199219 96.601562 "/>
</g>
</svg>
